<svg id="Layer_1" data-name="Layer 1" xmlns="http://www.w3.org/2000/svg" xmlns:xlink="http://www.w3.org/1999/xlink" viewBox="0 0 600 244.54"><defs><style>.cls-1{fill:none;}.cls-2{clip-path:url(#clip-path);}.cls-3{clip-path:url(#clip-path-2);}.cls-4{clip-path:url(#clip-path-4);}.cls-5{fill:#dadbdc;}.cls-6{clip-path:url(#clip-path-5);}</style><clipPath id="clip-path"><rect class="cls-1" width="600" height="244.54"/></clipPath><clipPath id="clip-path-2"><rect class="cls-1" x="131.59" y="-87.35" width="340.28" height="582.34" transform="translate(-62.34 209.93) rotate(-35)"/></clipPath><clipPath id="clip-path-4"><rect class="cls-1" x="64.96" y="-33.36" width="211.46" height="383.94" transform="translate(-60.1 126.59) rotate(-35)"/></clipPath><clipPath id="clip-path-5"><rect class="cls-1" x="320.15" y="47.24" width="211.46" height="383.94" transform="translate(-60.18 287.54) rotate(-35)"/></clipPath></defs><g class="cls-2"><g class="cls-3"><g class="cls-3"><g class="cls-4"><rect class="cls-5" x="100.39" y="209.03" width="5.9" height="5.9" transform="translate(-102.9 97.61) rotate(-35)"/><rect class="cls-5" x="111.2" y="201.46" width="5.9" height="5.9" transform="translate(-96.6 102.44) rotate(-35)"/><rect class="cls-5" x="122.01" y="193.89" width="5.9" height="5.9" transform="translate(-90.3 107.27) rotate(-35)"/><rect class="cls-5" x="132.82" y="186.32" width="5.9" height="5.9" transform="translate(-84.01 112.11) rotate(-35)"/><rect class="cls-5" x="143.63" y="178.75" width="5.9" height="5.9" transform="translate(-77.71 116.94) rotate(-35)"/><rect class="cls-5" x="154.45" y="171.18" width="5.9" height="5.9" transform="translate(-71.41 121.77) rotate(-35)"/><rect class="cls-5" x="165.26" y="163.61" width="5.9" height="5.9" transform="translate(-65.12 126.6) rotate(-35)"/><rect class="cls-5" x="176.07" y="156.04" width="5.9" height="5.9" transform="translate(-58.82 131.43) rotate(-35)"/><rect class="cls-5" x="186.88" y="148.47" width="5.9" height="5.9" transform="translate(-52.52 136.27) rotate(-35)"/><rect class="cls-5" x="197.69" y="140.9" width="5.9" height="5.9" transform="translate(-46.23 141.1) rotate(-35)"/><rect class="cls-5" x="208.5" y="133.33" width="5.9" height="5.9" transform="translate(-39.93 145.93) rotate(-35)"/><rect class="cls-5" x="219.31" y="125.76" width="5.9" height="5.9" transform="translate(-33.63 150.76) rotate(-35)"/><rect class="cls-5" x="230.12" y="118.19" width="5.9" height="5.9" transform="translate(-27.34 155.59) rotate(-35)"/><rect class="cls-5" x="240.93" y="110.62" width="5.9" height="5.9" transform="translate(-21.04 160.42) rotate(-35)"/><rect class="cls-5" x="100.39" y="209.03" width="5.9" height="5.9" transform="translate(-102.9 97.61) rotate(-35)"/><rect class="cls-5" x="108.46" y="220.56" width="5.9" height="5.9" transform="translate(-108.05 104.33) rotate(-35)"/><rect class="cls-5" x="111.2" y="201.46" width="5.9" height="5.9" transform="translate(-96.6 102.44) rotate(-35)"/><rect class="cls-5" x="119.27" y="212.99" width="5.9" height="5.9" transform="translate(-101.75 109.16) rotate(-35)"/><rect class="cls-5" x="127.35" y="224.51" width="5.9" height="5.9" transform="translate(-106.9 115.87) rotate(-35)"/><rect class="cls-5" x="135.42" y="236.04" width="5.9" height="5.9" transform="translate(-112.06 122.58) rotate(-35)"/><rect class="cls-5" x="122.01" y="193.89" width="5.9" height="5.9" transform="translate(-90.3 107.27) rotate(-35)"/><rect class="cls-5" x="130.08" y="205.42" width="5.9" height="5.9" transform="translate(-95.46 113.99) rotate(-35)"/><rect class="cls-5" x="138.16" y="216.94" width="5.9" height="5.9" transform="translate(-100.61 120.7) rotate(-35)"/><rect class="cls-5" x="146.23" y="228.47" width="5.9" height="5.9" transform="translate(-105.76 127.42) rotate(-35)"/><rect class="cls-5" x="154.3" y="240" width="5.9" height="5.9" transform="translate(-110.91 134.13) rotate(-35)"/><rect class="cls-5" x="132.82" y="186.32" width="5.9" height="5.9" transform="translate(-84.01 112.11) rotate(-35)"/><rect class="cls-5" x="140.9" y="197.85" width="5.9" height="5.9" transform="translate(-89.16 118.82) rotate(-35)"/><rect class="cls-5" x="148.97" y="209.37" width="5.9" height="5.9" transform="translate(-94.31 125.53) rotate(-35)"/><rect class="cls-5" x="157.04" y="220.9" width="5.9" height="5.9" transform="translate(-99.46 132.25) rotate(-35)"/><rect class="cls-5" x="165.11" y="232.43" width="5.9" height="5.9" transform="translate(-104.61 138.96) rotate(-35)"/><rect class="cls-5" x="173.18" y="243.95" width="5.9" height="5.9" transform="translate(-109.77 145.68) rotate(-35)"/><rect class="cls-5" x="143.63" y="178.75" width="5.9" height="5.9" transform="translate(-77.71 116.94) rotate(-35)"/><rect class="cls-5" x="151.71" y="190.28" width="5.9" height="5.9" transform="translate(-82.86 123.65) rotate(-35)"/><rect class="cls-5" x="159.78" y="201.8" width="5.9" height="5.9" transform="translate(-88.01 130.37) rotate(-35)"/><rect class="cls-5" x="167.85" y="213.33" width="5.9" height="5.9" transform="translate(-93.17 137.08) rotate(-35)"/><rect class="cls-5" x="175.92" y="224.86" width="5.9" height="5.9" transform="translate(-98.32 143.79) rotate(-35)"/><rect class="cls-5" x="183.99" y="236.38" width="5.9" height="5.9" transform="translate(-103.47 150.51) rotate(-35)"/><rect class="cls-5" x="154.45" y="171.18" width="5.9" height="5.9" transform="translate(-71.41 121.77) rotate(-35)"/><rect class="cls-5" x="162.52" y="182.71" width="5.9" height="5.9" transform="translate(-76.56 128.48) rotate(-35)"/><rect class="cls-5" x="170.59" y="194.23" width="5.9" height="5.9" transform="translate(-81.72 135.2) rotate(-35)"/><rect class="cls-5" x="178.66" y="205.76" width="5.9" height="5.9" transform="translate(-86.87 141.91) rotate(-35)"/><rect class="cls-5" x="186.73" y="217.29" width="5.9" height="5.9" transform="translate(-92.02 148.63) rotate(-35)"/><rect class="cls-5" x="194.8" y="228.81" width="5.9" height="5.9" transform="translate(-97.17 155.34) rotate(-35)"/><rect class="cls-5" x="202.87" y="240.34" width="5.9" height="5.9" transform="translate(-102.32 162.05) rotate(-35)"/><rect class="cls-5" x="165.26" y="163.61" width="5.9" height="5.9" transform="translate(-65.12 126.6) rotate(-35)"/><rect class="cls-5" x="173.33" y="175.14" width="5.9" height="5.9" transform="translate(-70.27 133.32) rotate(-35)"/><rect class="cls-5" x="181.4" y="186.67" width="5.9" height="5.9" transform="translate(-75.42 140.03) rotate(-35)"/><rect class="cls-5" x="189.47" y="198.19" width="5.9" height="5.9" transform="translate(-80.57 146.74) rotate(-35)"/><rect class="cls-5" x="197.54" y="209.72" width="5.9" height="5.9" transform="translate(-85.72 153.46) rotate(-35)"/><rect class="cls-5" x="205.61" y="221.24" width="5.9" height="5.9" transform="translate(-90.88 160.17) rotate(-35)"/><rect class="cls-5" x="213.68" y="232.77" width="5.9" height="5.9" transform="translate(-96.03 166.88) rotate(-35)"/><rect class="cls-5" x="221.75" y="244.3" width="5.9" height="5.9" transform="translate(-101.18 173.6) rotate(-35)"/><rect class="cls-5" x="176.07" y="156.04" width="5.9" height="5.9" transform="translate(-58.82 131.43) rotate(-35)"/><rect class="cls-5" x="184.14" y="167.57" width="5.9" height="5.9" transform="translate(-63.97 138.15) rotate(-35)"/><rect class="cls-5" x="192.21" y="179.1" width="5.9" height="5.9" transform="translate(-69.12 144.86) rotate(-35)"/><rect class="cls-5" x="200.28" y="190.62" width="5.9" height="5.9" transform="translate(-74.28 151.57) rotate(-35)"/><rect class="cls-5" x="208.35" y="202.15" width="5.9" height="5.9" transform="translate(-79.43 158.29) rotate(-35)"/><rect class="cls-5" x="216.42" y="213.67" width="5.9" height="5.9" transform="translate(-84.58 165) rotate(-35)"/><rect class="cls-5" x="224.49" y="225.2" width="5.9" height="5.9" transform="translate(-89.73 171.72) rotate(-35)"/><rect class="cls-5" x="232.56" y="236.73" width="5.9" height="5.9" transform="translate(-94.88 178.43) rotate(-35)"/><rect class="cls-5" x="186.88" y="148.47" width="5.9" height="5.9" transform="translate(-52.52 136.27) rotate(-35)"/><rect class="cls-5" x="194.95" y="160" width="5.9" height="5.9" transform="translate(-57.67 142.98) rotate(-35)"/><rect class="cls-5" x="203.02" y="171.53" width="5.9" height="5.9" transform="translate(-62.83 149.69) rotate(-35)"/><rect class="cls-5" x="211.09" y="183.05" width="5.9" height="5.9" transform="translate(-67.98 156.41) rotate(-35)"/><rect class="cls-5" x="219.16" y="194.58" width="5.9" height="5.9" transform="translate(-73.13 163.12) rotate(-35)"/><rect class="cls-5" x="227.23" y="206.1" width="5.9" height="5.9" transform="translate(-78.28 169.83) rotate(-35)"/><rect class="cls-5" x="235.3" y="217.63" width="5.9" height="5.9" transform="translate(-83.43 176.55) rotate(-35)"/><rect class="cls-5" x="243.37" y="229.16" width="5.9" height="5.9" transform="translate(-88.58 183.26) rotate(-35)"/><rect class="cls-5" x="251.44" y="240.68" width="5.9" height="5.9" transform="translate(-93.74 189.98) rotate(-35)"/><rect class="cls-5" x="197.69" y="140.9" width="5.9" height="5.9" transform="translate(-46.23 141.1) rotate(-35)"/><rect class="cls-5" x="205.76" y="152.43" width="5.9" height="5.9" transform="translate(-51.38 147.81) rotate(-35)"/><rect class="cls-5" x="213.83" y="163.96" width="5.9" height="5.9" transform="translate(-56.53 154.52) rotate(-35)"/><rect class="cls-5" x="221.9" y="175.48" width="5.9" height="5.9" transform="translate(-61.68 161.24) rotate(-35)"/><rect class="cls-5" x="229.97" y="187.01" width="5.9" height="5.9" transform="translate(-66.83 167.95) rotate(-35)"/><rect class="cls-5" x="238.04" y="198.54" width="5.9" height="5.9" transform="translate(-71.98 174.67) rotate(-35)"/><rect class="cls-5" x="246.11" y="210.06" width="5.9" height="5.9" transform="translate(-77.14 181.38) rotate(-35)"/><rect class="cls-5" x="254.18" y="221.59" width="5.9" height="5.9" transform="translate(-82.29 188.09) rotate(-35)"/><rect class="cls-5" x="262.25" y="233.11" width="5.9" height="5.9" transform="translate(-87.44 194.81) rotate(-35)"/><rect class="cls-5" x="270.33" y="244.64" width="5.9" height="5.9" transform="translate(-92.59 201.52) rotate(-35)"/><rect class="cls-5" x="208.5" y="133.33" width="5.9" height="5.9" transform="translate(-39.93 145.93) rotate(-35)"/><rect class="cls-5" x="216.57" y="144.86" width="5.9" height="5.9" transform="translate(-45.08 152.64) rotate(-35)"/><rect class="cls-5" x="224.64" y="156.39" width="5.9" height="5.9" transform="translate(-50.23 159.36) rotate(-35)"/><rect class="cls-5" x="232.71" y="167.91" width="5.9" height="5.9" transform="translate(-55.38 166.07) rotate(-35)"/><rect class="cls-5" x="240.78" y="179.44" width="5.9" height="5.9" transform="translate(-60.54 172.78) rotate(-35)"/><rect class="cls-5" x="248.85" y="190.97" width="5.9" height="5.9" transform="translate(-65.69 179.5) rotate(-35)"/><rect class="cls-5" x="256.92" y="202.49" width="5.9" height="5.9" transform="translate(-70.84 186.21) rotate(-35)"/><rect class="cls-5" x="264.99" y="214.02" width="5.9" height="5.9" transform="translate(-75.99 192.93) rotate(-35)"/><rect class="cls-5" x="273.07" y="225.55" width="5.9" height="5.9" transform="translate(-81.14 199.64) rotate(-35)"/><rect class="cls-5" x="219.31" y="125.76" width="5.9" height="5.9" transform="translate(-33.63 150.76) rotate(-35)"/><rect class="cls-5" x="227.38" y="137.29" width="5.9" height="5.9" transform="translate(-38.78 157.47) rotate(-35)"/><rect class="cls-5" x="235.45" y="148.82" width="5.9" height="5.9" transform="translate(-43.94 164.19) rotate(-35)"/><rect class="cls-5" x="243.52" y="160.34" width="5.9" height="5.9" transform="translate(-49.09 170.9) rotate(-35)"/><rect class="cls-5" x="251.59" y="171.87" width="5.9" height="5.9" transform="translate(-54.24 177.62) rotate(-35)"/><rect class="cls-5" x="230.12" y="118.19" width="5.9" height="5.9" transform="translate(-27.34 155.59) rotate(-35)"/><rect class="cls-5" x="238.19" y="129.72" width="5.9" height="5.9" transform="translate(-32.49 162.31) rotate(-35)"/><rect class="cls-5" x="246.26" y="141.25" width="5.9" height="5.9" transform="translate(-37.64 169.02) rotate(-35)"/><rect class="cls-5" x="254.33" y="152.77" width="5.9" height="5.9" transform="translate(-42.79 175.73) rotate(-35)"/><rect class="cls-5" x="240.93" y="110.62" width="5.9" height="5.9" transform="translate(-21.04 160.42) rotate(-35)"/><rect class="cls-5" x="249" y="122.15" width="5.9" height="5.9" transform="translate(-26.19 167.14) rotate(-35)"/><rect class="cls-5" x="84.25" y="185.98" width="5.9" height="5.9" transform="translate(-92.59 84.18) rotate(-35)"/><rect class="cls-5" x="92.32" y="197.5" width="5.9" height="5.9" transform="translate(-97.74 90.9) rotate(-35)"/><rect class="cls-5" x="62.78" y="132.3" width="5.9" height="5.9" transform="translate(-65.69 62.16) rotate(-35)"/><rect class="cls-5" x="70.85" y="143.83" width="5.9" height="5.9" transform="translate(-70.84 68.87) rotate(-35)"/><rect class="cls-5" x="78.92" y="155.35" width="5.9" height="5.9" transform="translate(-75.99 75.59) rotate(-35)"/><rect class="cls-5" x="86.99" y="166.88" width="5.9" height="5.9" transform="translate(-81.14 82.3) rotate(-35)"/><rect class="cls-5" x="95.06" y="178.41" width="5.9" height="5.9" transform="translate(-86.3 89.02) rotate(-35)"/><rect class="cls-5" x="103.13" y="189.93" width="5.9" height="5.9" transform="translate(-91.45 95.73) rotate(-35)"/><rect class="cls-5" x="41.3" y="78.62" width="5.9" height="5.9" transform="translate(-38.79 40.14) rotate(-35)"/><rect class="cls-5" x="49.38" y="90.15" width="5.9" height="5.9" transform="translate(-43.94 46.85) rotate(-35)"/><rect class="cls-5" x="57.45" y="101.68" width="5.9" height="5.9" transform="translate(-49.09 53.56) rotate(-35)"/><rect class="cls-5" x="65.52" y="113.2" width="5.9" height="5.9" transform="translate(-54.24 60.28) rotate(-35)"/><rect class="cls-5" x="73.59" y="124.73" width="5.9" height="5.9" transform="translate(-59.39 66.99) rotate(-35)"/><rect class="cls-5" x="81.66" y="136.26" width="5.9" height="5.9" transform="translate(-64.54 73.71) rotate(-35)"/><rect class="cls-5" x="89.73" y="147.78" width="5.9" height="5.9" transform="translate(-69.7 80.42) rotate(-35)"/><rect class="cls-5" x="97.8" y="159.31" width="5.9" height="5.9" transform="translate(-74.85 87.13) rotate(-35)"/><rect class="cls-5" x="105.87" y="170.84" width="5.9" height="5.9" transform="translate(-80 93.85) rotate(-35)"/><rect class="cls-5" x="113.94" y="182.36" width="5.9" height="5.9" transform="translate(-85.15 100.56) rotate(-35)"/><rect class="cls-5" x="52.11" y="71.06" width="5.9" height="5.9" transform="translate(-32.49 44.97) rotate(-35)"/><rect class="cls-5" x="60.19" y="82.58" width="5.9" height="5.9" transform="translate(-37.64 51.68) rotate(-35)"/><rect class="cls-5" x="68.26" y="94.11" width="5.9" height="5.9" transform="translate(-42.79 58.4) rotate(-35)"/><rect class="cls-5" x="76.33" y="105.63" width="5.9" height="5.9" transform="translate(-47.94 65.11) rotate(-35)"/><rect class="cls-5" x="84.4" y="117.16" width="5.9" height="5.9" transform="translate(-53.1 71.82) rotate(-35)"/><rect class="cls-5" x="92.47" y="128.69" width="5.9" height="5.9" transform="translate(-58.25 78.54) rotate(-35)"/><rect class="cls-5" x="100.54" y="140.21" width="5.9" height="5.9" transform="translate(-63.4 85.25) rotate(-35)"/><rect class="cls-5" x="108.61" y="151.74" width="5.9" height="5.9" transform="translate(-68.55 91.96) rotate(-35)"/><rect class="cls-5" x="116.68" y="163.27" width="5.9" height="5.9" transform="translate(-73.7 98.68) rotate(-35)"/><rect class="cls-5" x="124.75" y="174.79" width="5.9" height="5.9" transform="translate(-78.85 105.39) rotate(-35)"/><rect class="cls-5" x="79.07" y="86.54" width="5.9" height="5.9" transform="translate(-36.5 63.23) rotate(-35)"/><rect class="cls-5" x="87.14" y="98.07" width="5.9" height="5.9" transform="translate(-41.65 69.94) rotate(-35)"/><rect class="cls-5" x="95.21" y="109.59" width="5.9" height="5.9" transform="translate(-46.8 76.65) rotate(-35)"/><rect class="cls-5" x="103.28" y="121.12" width="5.9" height="5.9" transform="translate(-51.95 83.37) rotate(-35)"/><rect class="cls-5" x="111.35" y="132.64" width="5.9" height="5.9" transform="translate(-57.1 90.08) rotate(-35)"/><rect class="cls-5" x="119.42" y="144.17" width="5.9" height="5.9" transform="translate(-62.25 96.8) rotate(-35)"/><rect class="cls-5" x="127.49" y="155.7" width="5.9" height="5.9" transform="translate(-67.41 103.51) rotate(-35)"/><rect class="cls-5" x="135.56" y="167.22" width="5.9" height="5.9" transform="translate(-72.56 110.22) rotate(-35)"/><rect class="cls-5" x="89.88" y="78.97" width="5.9" height="5.9" transform="translate(-30.2 68.06) rotate(-35)"/><rect class="cls-5" x="97.95" y="90.5" width="5.9" height="5.9" transform="translate(-35.35 74.77) rotate(-35)"/><rect class="cls-5" x="106.02" y="102.02" width="5.9" height="5.9" transform="translate(-40.5 81.49) rotate(-35)"/><rect class="cls-5" x="114.09" y="113.55" width="5.9" height="5.9" transform="translate(-45.65 88.2) rotate(-35)"/><rect class="cls-5" x="122.16" y="125.08" width="5.9" height="5.9" transform="translate(-50.81 94.91) rotate(-35)"/><rect class="cls-5" x="130.23" y="136.6" width="5.9" height="5.9" transform="translate(-55.96 101.63) rotate(-35)"/><rect class="cls-5" x="138.3" y="148.13" width="5.9" height="5.9" transform="translate(-61.11 108.34) rotate(-35)"/><rect class="cls-5" x="146.37" y="159.65" width="5.9" height="5.9" transform="translate(-66.26 115.06) rotate(-35)"/><rect class="cls-5" x="76.47" y="36.82" width="5.9" height="5.9" transform="translate(-8.45 52.75) rotate(-35)"/><rect class="cls-5" x="84.55" y="48.35" width="5.9" height="5.9" transform="translate(-13.6 59.46) rotate(-35)"/><rect class="cls-5" x="92.62" y="59.87" width="5.9" height="5.9" transform="translate(-18.75 66.18) rotate(-35)"/><rect class="cls-5" x="100.69" y="71.4" width="5.9" height="5.9" transform="translate(-23.9 72.89) rotate(-35)"/><rect class="cls-5" x="108.76" y="82.93" width="5.9" height="5.9" transform="translate(-29.05 79.6) rotate(-35)"/><rect class="cls-5" x="116.83" y="94.45" width="5.9" height="5.9" transform="translate(-34.21 86.32) rotate(-35)"/><rect class="cls-5" x="124.9" y="105.98" width="5.9" height="5.9" transform="translate(-39.36 93.03) rotate(-35)"/><rect class="cls-5" x="132.97" y="117.51" width="5.9" height="5.9" transform="translate(-44.51 99.75) rotate(-35)"/><rect class="cls-5" x="141.04" y="129.03" width="5.9" height="5.9" transform="translate(-49.66 106.46) rotate(-35)"/><rect class="cls-5" x="149.11" y="140.56" width="5.9" height="5.9" transform="translate(-54.81 113.17) rotate(-35)"/><rect class="cls-5" x="157.18" y="152.08" width="5.9" height="5.9" transform="translate(-59.96 119.89) rotate(-35)"/><rect class="cls-5" x="87.28" y="29.25" width="5.9" height="5.9" transform="translate(-2.15 57.58) rotate(-35)"/><rect class="cls-5" x="95.36" y="40.78" width="5.9" height="5.9" transform="translate(-7.3 64.29) rotate(-35)"/><rect class="cls-5" x="103.43" y="52.3" width="5.9" height="5.9" transform="translate(-12.45 71.01) rotate(-35)"/><rect class="cls-5" x="111.5" y="63.83" width="5.9" height="5.9" transform="translate(-17.61 77.72) rotate(-35)"/><rect class="cls-5" x="119.57" y="75.36" width="5.9" height="5.9" transform="translate(-22.76 84.44) rotate(-35)"/><rect class="cls-5" x="127.64" y="86.88" width="5.9" height="5.9" transform="translate(-27.91 91.15) rotate(-35)"/><rect class="cls-5" x="135.71" y="98.41" width="5.9" height="5.9" transform="translate(-33.06 97.86) rotate(-35)"/><rect class="cls-5" x="143.78" y="109.94" width="5.9" height="5.9" transform="translate(-38.21 104.58) rotate(-35)"/><rect class="cls-5" x="151.85" y="121.46" width="5.9" height="5.9" transform="translate(-43.36 111.29) rotate(-35)"/><rect class="cls-5" x="159.92" y="132.99" width="5.9" height="5.9" transform="translate(-48.52 118.01) rotate(-35)"/><rect class="cls-5" x="167.99" y="144.52" width="5.9" height="5.9" transform="translate(-53.67 124.72) rotate(-35)"/><rect class="cls-5" x="154.59" y="102.37" width="5.9" height="5.9" transform="translate(-31.92 109.41) rotate(-35)"/><rect class="cls-5" x="162.66" y="113.89" width="5.9" height="5.9" transform="translate(-37.07 116.12) rotate(-35)"/><rect class="cls-5" x="170.73" y="125.42" width="5.9" height="5.9" transform="translate(-42.22 122.84) rotate(-35)"/><rect class="cls-5" x="178.81" y="136.95" width="5.9" height="5.9" transform="translate(-47.37 129.55) rotate(-35)"/><rect class="cls-5" x="165.4" y="94.8" width="5.9" height="5.9" transform="translate(-25.62 114.24) rotate(-35)"/><rect class="cls-5" x="173.47" y="106.32" width="5.9" height="5.9" transform="translate(-30.77 120.96) rotate(-35)"/><rect class="cls-5" x="181.55" y="117.85" width="5.9" height="5.9" transform="translate(-35.92 127.67) rotate(-35)"/><rect class="cls-5" x="189.62" y="129.38" width="5.9" height="5.9" transform="translate(-41.07 134.38) rotate(-35)"/><rect class="cls-5" x="135.86" y="29.59" width="5.9" height="5.9" transform="translate(6.44 85.5) rotate(-35)"/><rect class="cls-5" x="143.93" y="41.12" width="5.9" height="5.9" transform="translate(1.28 92.22) rotate(-35)"/><rect class="cls-5" x="152" y="52.65" width="5.9" height="5.9" transform="translate(-3.87 98.93) rotate(-35)"/><rect class="cls-5" x="160.07" y="64.17" width="5.9" height="5.9" transform="translate(-9.02 105.65) rotate(-35)"/><rect class="cls-5" x="168.14" y="75.7" width="5.9" height="5.9" transform="translate(-14.17 112.36) rotate(-35)"/><rect class="cls-5" x="176.21" y="87.23" width="5.9" height="5.9" transform="translate(-19.32 119.07) rotate(-35)"/><rect class="cls-5" x="184.28" y="98.75" width="5.9" height="5.9" transform="translate(-24.47 125.79) rotate(-35)"/><rect class="cls-5" x="192.36" y="110.28" width="5.9" height="5.9" transform="translate(-29.63 132.5) rotate(-35)"/><rect class="cls-5" x="200.43" y="121.81" width="5.9" height="5.9" transform="translate(-34.78 139.21) rotate(-35)"/><rect class="cls-5" x="146.67" y="22.02" width="5.9" height="5.9" transform="translate(12.73 90.33) rotate(-35)"/><rect class="cls-5" x="154.74" y="33.55" width="5.9" height="5.9" transform="translate(7.58 97.05) rotate(-35)"/><rect class="cls-5" x="162.81" y="45.08" width="5.9" height="5.9" transform="translate(2.43 103.76) rotate(-35)"/><rect class="cls-5" x="170.88" y="56.6" width="5.9" height="5.9" transform="translate(-2.72 110.48) rotate(-35)"/><rect class="cls-5" x="178.95" y="68.13" width="5.9" height="5.9" transform="translate(-7.87 117.19) rotate(-35)"/><rect class="cls-5" x="187.02" y="79.66" width="5.9" height="5.9" transform="translate(-13.03 123.9) rotate(-35)"/><rect class="cls-5" x="195.09" y="91.18" width="5.9" height="5.9" transform="translate(-18.18 130.62) rotate(-35)"/><rect class="cls-5" x="203.17" y="102.71" width="5.9" height="5.9" transform="translate(-23.33 137.33) rotate(-35)"/><rect class="cls-5" x="211.24" y="114.24" width="5.9" height="5.9" transform="translate(-28.48 144.05) rotate(-35)"/><rect class="cls-5" x="181.69" y="49.04" width="5.9" height="5.9" transform="translate(3.57 115.31) rotate(-35)"/><rect class="cls-5" x="189.76" y="60.56" width="5.9" height="5.9" transform="translate(-1.58 122.02) rotate(-35)"/><rect class="cls-5" x="197.83" y="72.09" width="5.9" height="5.9" transform="translate(-6.73 128.74) rotate(-35)"/><rect class="cls-5" x="205.91" y="83.61" width="5.9" height="5.9" transform="translate(-11.88 135.45) rotate(-35)"/><rect class="cls-5" x="213.98" y="95.14" width="5.9" height="5.9" transform="translate(-17.03 142.16) rotate(-35)"/><rect class="cls-5" x="222.05" y="106.67" width="5.9" height="5.9" transform="translate(-22.18 148.88) rotate(-35)"/><rect class="cls-5" x="216.72" y="76.05" width="5.9" height="5.9" transform="translate(-5.58 140.28) rotate(-35)"/><rect class="cls-5" x="224.79" y="87.57" width="5.9" height="5.9" transform="translate(-10.74 147) rotate(-35)"/><rect class="cls-5" x="232.86" y="99.1" width="5.9" height="5.9" transform="translate(-15.89 153.71) rotate(-35)"/><rect class="cls-5" x="61.37" y="15.25" width="5.9" height="5.9" transform="translate(1.19 40.19) rotate(-35)"/><rect class="cls-5" x="69.45" y="26.78" width="5.9" height="5.9" transform="translate(-3.96 46.9) rotate(-35)"/><rect class="cls-5" x="72.18" y="7.68" width="5.9" height="5.9" transform="translate(7.49 45.02) rotate(-35)"/><rect class="cls-5" x="80.26" y="19.21" width="5.9" height="5.9" transform="translate(2.34 51.73) rotate(-35)"/></g></g></g><g class="cls-6"><rect class="cls-5" x="420.45" y="244.22" width="5.9" height="5.9" transform="translate(-65.2 287.55) rotate(-35)"/><rect class="cls-5" x="431.26" y="236.65" width="5.9" height="5.9" transform="translate(-58.9 292.38) rotate(-35)"/><rect class="cls-5" x="442.07" y="229.08" width="5.9" height="5.9" transform="translate(-52.6 297.22) rotate(-35)"/><rect class="cls-5" x="452.88" y="221.51" width="5.9" height="5.9" transform="translate(-46.31 302.05) rotate(-35)"/><rect class="cls-5" x="463.69" y="213.94" width="5.9" height="5.9" transform="translate(-40.01 306.88) rotate(-35)"/><rect class="cls-5" x="474.5" y="206.37" width="5.9" height="5.9" transform="translate(-33.71 311.71) rotate(-35)"/><rect class="cls-5" x="485.31" y="198.8" width="5.9" height="5.9" transform="translate(-27.42 316.54) rotate(-35)"/><rect class="cls-5" x="496.12" y="191.23" width="5.9" height="5.9" transform="translate(-21.12 321.37) rotate(-35)"/><rect class="cls-5" x="420.45" y="244.22" width="5.9" height="5.9" transform="translate(-65.2 287.55) rotate(-35)"/><rect class="cls-5" x="431.26" y="236.65" width="5.9" height="5.9" transform="translate(-58.9 292.38) rotate(-35)"/><rect class="cls-5" x="442.07" y="229.08" width="5.9" height="5.9" transform="translate(-52.6 297.22) rotate(-35)"/><rect class="cls-5" x="450.14" y="240.6" width="5.9" height="5.9" transform="translate(-57.76 303.93) rotate(-35)"/><rect class="cls-5" x="452.88" y="221.51" width="5.9" height="5.9" transform="translate(-46.31 302.05) rotate(-35)"/><rect class="cls-5" x="460.95" y="233.03" width="5.9" height="5.9" transform="translate(-51.46 308.76) rotate(-35)"/><rect class="cls-5" x="469.02" y="244.56" width="5.9" height="5.9" transform="translate(-56.61 315.48) rotate(-35)"/><rect class="cls-5" x="463.69" y="213.94" width="5.9" height="5.9" transform="translate(-40.01 306.88) rotate(-35)"/><rect class="cls-5" x="471.76" y="225.46" width="5.9" height="5.9" transform="translate(-45.16 313.59) rotate(-35)"/><rect class="cls-5" x="479.83" y="236.99" width="5.9" height="5.9" transform="translate(-50.31 320.31) rotate(-35)"/><rect class="cls-5" x="474.5" y="206.37" width="5.9" height="5.9" transform="translate(-33.71 311.71) rotate(-35)"/><rect class="cls-5" x="482.57" y="217.89" width="5.9" height="5.9" transform="translate(-38.87 318.42) rotate(-35)"/><rect class="cls-5" x="490.64" y="229.42" width="5.9" height="5.9" transform="translate(-44.02 325.14) rotate(-35)"/><rect class="cls-5" x="498.72" y="240.95" width="5.9" height="5.9" transform="translate(-49.17 331.85) rotate(-35)"/><rect class="cls-5" x="485.31" y="198.8" width="5.9" height="5.9" transform="translate(-27.42 316.54) rotate(-35)"/><rect class="cls-5" x="493.38" y="210.32" width="5.9" height="5.9" transform="translate(-32.57 323.26) rotate(-35)"/><rect class="cls-5" x="501.45" y="221.85" width="5.9" height="5.9" transform="translate(-37.72 329.97) rotate(-35)"/><rect class="cls-5" x="509.53" y="233.38" width="5.9" height="5.9" transform="translate(-42.87 336.68) rotate(-35)"/><rect class="cls-5" x="496.12" y="191.23" width="5.9" height="5.9" transform="translate(-21.12 321.37) rotate(-35)"/><rect class="cls-5" x="504.19" y="202.75" width="5.9" height="5.9" transform="translate(-26.27 328.09) rotate(-35)"/><rect class="cls-5" x="317.97" y="212.9" width="5.9" height="5.9" transform="translate(-65.77 223.11) rotate(-35)"/><rect class="cls-5" x="326.04" y="224.43" width="5.9" height="5.9" transform="translate(-70.92 229.82) rotate(-35)"/><rect class="cls-5" x="334.11" y="235.96" width="5.9" height="5.9" transform="translate(-76.07 236.54) rotate(-35)"/><rect class="cls-5" x="296.5" y="159.23" width="5.9" height="5.9" transform="translate(-38.87 201.09) rotate(-35)"/><rect class="cls-5" x="304.57" y="170.75" width="5.9" height="5.9" transform="translate(-44.02 207.8) rotate(-35)"/><rect class="cls-5" x="312.64" y="182.28" width="5.9" height="5.9" transform="translate(-49.17 214.51) rotate(-35)"/><rect class="cls-5" x="320.71" y="193.81" width="5.9" height="5.9" transform="translate(-54.32 221.23) rotate(-35)"/><rect class="cls-5" x="328.78" y="205.33" width="5.9" height="5.9" transform="translate(-59.47 227.94) rotate(-35)"/><rect class="cls-5" x="336.85" y="216.86" width="5.9" height="5.9" transform="translate(-64.63 234.66) rotate(-35)"/><rect class="cls-5" x="344.92" y="228.39" width="5.9" height="5.9" transform="translate(-69.78 241.37) rotate(-35)"/><rect class="cls-5" x="353" y="239.91" width="5.9" height="5.9" transform="translate(-74.93 248.08) rotate(-35)"/><rect class="cls-5" x="307.31" y="151.66" width="5.9" height="5.9" transform="translate(-32.57 205.92) rotate(-35)"/><rect class="cls-5" x="315.38" y="163.18" width="5.9" height="5.9" transform="translate(-37.72 212.63) rotate(-35)"/><rect class="cls-5" x="323.45" y="174.71" width="5.9" height="5.9" transform="translate(-42.87 219.35) rotate(-35)"/><rect class="cls-5" x="331.52" y="186.24" width="5.9" height="5.9" transform="translate(-48.03 226.06) rotate(-35)"/><rect class="cls-5" x="339.59" y="197.76" width="5.9" height="5.9" transform="translate(-53.18 232.77) rotate(-35)"/><rect class="cls-5" x="347.66" y="209.29" width="5.9" height="5.9" transform="translate(-58.33 239.49) rotate(-35)"/><rect class="cls-5" x="355.73" y="220.82" width="5.9" height="5.9" transform="translate(-63.48 246.2) rotate(-35)"/><rect class="cls-5" x="363.81" y="232.34" width="5.9" height="5.9" transform="translate(-68.63 252.92) rotate(-35)"/><rect class="cls-5" x="371.88" y="243.87" width="5.9" height="5.9" transform="translate(-73.78 259.63) rotate(-35)"/><rect class="cls-5" x="334.26" y="167.14" width="5.9" height="5.9" transform="translate(-36.58 224.18) rotate(-35)"/><rect class="cls-5" x="342.33" y="178.67" width="5.9" height="5.9" transform="translate(-41.73 230.89) rotate(-35)"/><rect class="cls-5" x="350.4" y="190.2" width="5.9" height="5.9" transform="translate(-46.88 237.61) rotate(-35)"/><rect class="cls-5" x="358.47" y="201.72" width="5.9" height="5.9" transform="translate(-52.03 244.32) rotate(-35)"/><rect class="cls-5" x="366.55" y="213.25" width="5.9" height="5.9" transform="translate(-57.18 251.03) rotate(-35)"/><rect class="cls-5" x="374.62" y="224.77" width="5.9" height="5.9" transform="translate(-62.34 257.75) rotate(-35)"/><rect class="cls-5" x="382.69" y="236.3" width="5.9" height="5.9" transform="translate(-67.49 264.46) rotate(-35)"/><rect class="cls-5" x="345.07" y="159.57" width="5.9" height="5.9" transform="translate(-30.28 229.01) rotate(-35)"/><rect class="cls-5" x="353.14" y="171.1" width="5.9" height="5.9" transform="translate(-35.43 235.72) rotate(-35)"/><rect class="cls-5" x="361.21" y="182.63" width="5.9" height="5.9" transform="translate(-40.58 242.44) rotate(-35)"/><rect class="cls-5" x="369.28" y="194.15" width="5.9" height="5.9" transform="translate(-45.74 249.15) rotate(-35)"/><rect class="cls-5" x="377.36" y="205.68" width="5.9" height="5.9" transform="translate(-50.89 255.86) rotate(-35)"/><rect class="cls-5" x="385.43" y="217.21" width="5.9" height="5.9" transform="translate(-56.04 262.58) rotate(-35)"/><rect class="cls-5" x="393.5" y="228.73" width="5.9" height="5.9" transform="translate(-61.19 269.29) rotate(-35)"/><rect class="cls-5" x="401.57" y="240.26" width="5.9" height="5.9" transform="translate(-66.34 276.01) rotate(-35)"/><rect class="cls-5" x="331.67" y="117.42" width="5.9" height="5.9" transform="translate(-8.53 213.7) rotate(-35)"/><rect class="cls-5" x="339.74" y="128.95" width="5.9" height="5.9" transform="translate(-13.68 220.41) rotate(-35)"/><rect class="cls-5" x="347.81" y="140.48" width="5.9" height="5.9" transform="translate(-18.83 227.13) rotate(-35)"/><rect class="cls-5" x="355.88" y="152" width="5.9" height="5.9" transform="translate(-23.98 233.84) rotate(-35)"/><rect class="cls-5" x="363.95" y="163.53" width="5.9" height="5.9" transform="translate(-29.14 240.55) rotate(-35)"/><rect class="cls-5" x="372.02" y="175.06" width="5.9" height="5.9" transform="translate(-34.29 247.27) rotate(-35)"/><rect class="cls-5" x="380.09" y="186.58" width="5.9" height="5.9" transform="translate(-39.44 253.98) rotate(-35)"/><rect class="cls-5" x="388.17" y="198.11" width="5.9" height="5.9" transform="translate(-44.59 260.7) rotate(-35)"/><rect class="cls-5" x="396.24" y="209.64" width="5.9" height="5.9" transform="translate(-49.74 267.41) rotate(-35)"/><rect class="cls-5" x="404.31" y="221.16" width="5.9" height="5.9" transform="translate(-54.89 274.12) rotate(-35)"/><rect class="cls-5" x="412.38" y="232.69" width="5.9" height="5.9" transform="translate(-60.05 280.84) rotate(-35)"/><rect class="cls-5" x="342.48" y="109.85" width="5.9" height="5.9" transform="translate(-2.23 218.53) rotate(-35)"/><rect class="cls-5" x="350.55" y="121.38" width="5.9" height="5.9" transform="translate(-7.38 225.24) rotate(-35)"/><rect class="cls-5" x="358.62" y="132.91" width="5.9" height="5.9" transform="translate(-12.54 231.96) rotate(-35)"/><rect class="cls-5" x="366.69" y="144.43" width="5.9" height="5.9" transform="translate(-17.69 238.67) rotate(-35)"/><rect class="cls-5" x="374.76" y="155.96" width="5.9" height="5.9" transform="translate(-22.84 245.39) rotate(-35)"/><rect class="cls-5" x="382.83" y="167.49" width="5.9" height="5.9" transform="translate(-27.99 252.1) rotate(-35)"/><rect class="cls-5" x="390.9" y="179.01" width="5.9" height="5.9" transform="translate(-33.14 258.81) rotate(-35)"/><rect class="cls-5" x="398.98" y="190.54" width="5.9" height="5.9" transform="translate(-38.29 265.53) rotate(-35)"/><rect class="cls-5" x="407.05" y="202.07" width="5.9" height="5.9" transform="translate(-43.45 272.24) rotate(-35)"/><rect class="cls-5" x="415.12" y="213.59" width="5.9" height="5.9" transform="translate(-48.6 278.96) rotate(-35)"/><rect class="cls-5" x="423.19" y="225.12" width="5.9" height="5.9" transform="translate(-53.75 285.67) rotate(-35)"/><rect class="cls-5" x="409.79" y="182.97" width="5.9" height="5.9" transform="translate(-32 270.36) rotate(-35)"/><rect class="cls-5" x="417.86" y="194.5" width="5.9" height="5.9" transform="translate(-37.15 277.07) rotate(-35)"/><rect class="cls-5" x="425.93" y="206.02" width="5.9" height="5.9" transform="translate(-42.3 283.79) rotate(-35)"/><rect class="cls-5" x="434" y="217.55" width="5.9" height="5.9" transform="translate(-47.45 290.5) rotate(-35)"/><rect class="cls-5" x="420.6" y="175.4" width="5.9" height="5.9" transform="translate(-25.7 275.19) rotate(-35)"/><rect class="cls-5" x="428.67" y="186.93" width="5.9" height="5.9" transform="translate(-30.85 281.91) rotate(-35)"/><rect class="cls-5" x="436.74" y="198.45" width="5.9" height="5.9" transform="translate(-36 288.62) rotate(-35)"/><rect class="cls-5" x="444.81" y="209.98" width="5.9" height="5.9" transform="translate(-41.15 295.33) rotate(-35)"/><rect class="cls-5" x="391.05" y="110.2" width="5.9" height="5.9" transform="translate(6.36 246.45) rotate(-35)"/><rect class="cls-5" x="399.12" y="121.72" width="5.9" height="5.9" transform="translate(1.2 253.17) rotate(-35)"/><rect class="cls-5" x="407.2" y="133.25" width="5.9" height="5.9" transform="translate(-3.95 259.88) rotate(-35)"/><rect class="cls-5" x="415.27" y="144.78" width="5.9" height="5.9" transform="translate(-9.1 266.6) rotate(-35)"/><rect class="cls-5" x="423.34" y="156.3" width="5.9" height="5.9" transform="translate(-14.25 273.31) rotate(-35)"/><rect class="cls-5" x="431.41" y="167.83" width="5.9" height="5.9" transform="translate(-19.4 280.02) rotate(-35)"/><rect class="cls-5" x="439.48" y="179.36" width="5.9" height="5.9" transform="translate(-24.55 286.74) rotate(-35)"/><rect class="cls-5" x="447.55" y="190.88" width="5.9" height="5.9" transform="translate(-29.71 293.45) rotate(-35)"/><rect class="cls-5" x="455.62" y="202.41" width="5.9" height="5.9" transform="translate(-34.86 300.16) rotate(-35)"/><rect class="cls-5" x="401.86" y="102.63" width="5.9" height="5.9" transform="translate(12.65 251.29) rotate(-35)"/><rect class="cls-5" x="409.93" y="114.15" width="5.9" height="5.9" transform="translate(7.5 258) rotate(-35)"/><rect class="cls-5" x="418.01" y="125.68" width="5.9" height="5.9" transform="translate(2.35 264.71) rotate(-35)"/><rect class="cls-5" x="426.08" y="137.21" width="5.9" height="5.9" transform="translate(-2.8 271.43) rotate(-35)"/><rect class="cls-5" x="434.15" y="148.73" width="5.9" height="5.9" transform="translate(-7.95 278.14) rotate(-35)"/><rect class="cls-5" x="442.22" y="160.26" width="5.9" height="5.9" transform="translate(-13.11 284.85) rotate(-35)"/><rect class="cls-5" x="450.29" y="171.79" width="5.9" height="5.9" transform="translate(-18.26 291.57) rotate(-35)"/><rect class="cls-5" x="458.36" y="183.31" width="5.9" height="5.9" transform="translate(-23.41 298.28) rotate(-35)"/><rect class="cls-5" x="466.43" y="194.84" width="5.9" height="5.9" transform="translate(-28.56 305) rotate(-35)"/><rect class="cls-5" x="436.89" y="129.64" width="5.9" height="5.9" transform="translate(3.49 276.26) rotate(-35)"/><rect class="cls-5" x="444.96" y="141.16" width="5.9" height="5.9" transform="translate(-1.66 282.97) rotate(-35)"/><rect class="cls-5" x="453.03" y="152.69" width="5.9" height="5.9" transform="translate(-6.81 289.69) rotate(-35)"/><rect class="cls-5" x="461.1" y="164.22" width="5.9" height="5.9" transform="translate(-11.96 296.4) rotate(-35)"/><rect class="cls-5" x="469.17" y="175.74" width="5.9" height="5.9" transform="translate(-17.11 303.11) rotate(-35)"/><rect class="cls-5" x="477.24" y="187.27" width="5.9" height="5.9" transform="translate(-22.26 309.83) rotate(-35)"/><rect class="cls-5" x="471.91" y="156.65" width="5.9" height="5.9" transform="translate(-5.66 301.23) rotate(-35)"/><rect class="cls-5" x="479.98" y="168.18" width="5.9" height="5.9" transform="translate(-10.82 307.95) rotate(-35)"/><rect class="cls-5" x="488.05" y="179.7" width="5.9" height="5.9" transform="translate(-15.97 314.66) rotate(-35)"/><rect class="cls-5" x="316.57" y="95.86" width="5.9" height="5.9" transform="translate(1.11 201.14) rotate(-35)"/><rect class="cls-5" x="324.64" y="107.38" width="5.9" height="5.9" transform="translate(-4.04 207.85) rotate(-35)"/><rect class="cls-5" x="327.38" y="88.29" width="5.9" height="5.9" transform="translate(7.41 205.97) rotate(-35)"/><rect class="cls-5" x="335.45" y="99.81" width="5.9" height="5.9" transform="translate(2.26 212.68) rotate(-35)"/></g></g></svg>