<svg xmlns="http://www.w3.org/2000/svg" viewBox="0 0 96.65 160.78"><defs><style>.cls-1{fill:#ff8200;}.cls-2{fill:#fff;}</style></defs><g id="Layer_2" data-name="Layer 2"><g id="Layer_1-2" data-name="Layer 1"><path class="cls-1" d="M25.16,107.26c-4.25,0-8.37-.08-12.25-.25A9.39,9.39,0,0,1,6,102.75c-9.4-16.06-7.7-35.93,4.33-50.6a67.76,67.76,0,0,1,8.21-8.44c9.86-8.5,13.45-16.82,11.63-27l-.77-4.32,3.77,2.25c8.07,4.82,17.26,15.23,19.6,27.61a28,28,0,0,1-5.47,22.91c-.84,1.08-1.71,2.15-2.57,3.22a61.38,61.38,0,0,0-5.9,8.09,37.24,37.24,0,0,0-2.19,4.59,266,266,0,0,0,19.65-22c11.83-15.45,12.55-32.82,2-48.9-.88-1.34-1.83-2.65-2.84-4L54,4.11,51.08,0l5,1C71.75,4.11,87.09,22.5,88.21,39.57c.87,13.21-3.52,24.41-13,33.27-2.46,2.29-5.07,4.47-7.6,6.58-3.1,2.59-6.31,5.27-9.19,8.12S52.54,93.83,49.8,97c-1.88,2.22-3.83,4.51-5.85,6.69-1.43,1.55-3.76,3.24-6,3.31C33.36,107.19,29.19,107.26,25.16,107.26Z"/><path class="cls-2" d="M55.64,2.94C70.77,6,85.17,23.74,86.22,39.7,87.05,52.35,83,62.86,73.8,71.38,68.34,76.46,62.26,80.88,57,86.12,51.82,91.21,47.4,97,42.48,102.38c-1.17,1.27-3,2.61-4.62,2.66-8.29.27-16.59.32-24.87,0a7.49,7.49,0,0,1-5.23-3.27,42.2,42.2,0,0,1,4.15-48.32,65.61,65.61,0,0,1,8-8.2c8.79-7.56,14.53-16.37,12.3-28.85C45.3,24.22,59.45,46.24,45.75,64c-3,3.8-6.26,7.4-8.63,11.53s-3.68,8.72-5.47,13.11c.39.14,17-16.22,26.26-28.29C70.15,44.32,71.05,26,60,9.09,58.68,7.05,57.19,5.12,55.64,2.94Z"/><path class="cls-2" d="M81.09,131.75H9.88V114H81.09Z"/><path class="cls-2" d="M94.57,60.52c5.32,14.35,0,33.81-11.28,42.85a7.16,7.16,0,0,1-3.94,1.71c-9.42.14-18.85.08-30,.08,3.86-4.56,6.48-8.51,9.93-11.51A166.61,166.61,0,0,1,75.16,81.76C83.08,76.39,90.26,70.41,94.57,60.52Z"/><path class="cls-2" d="M36.86,138.27H54.19v22.51H36.86Z"/></g></g></svg>